<?xml version="1.0" encoding="utf-8"?>
<!-- Generator: Adobe Illustrator 27.5.0, SVG Export Plug-In . SVG Version: 6.00 Build 0)  -->
<svg version="1.1" xmlns="http://www.w3.org/2000/svg" xmlns:xlink="http://www.w3.org/1999/xlink" x="0px" y="0px"
	 viewBox="0 0 500 500" style="enable-background:new 0 0 500 500;" xml:space="preserve">
<g id="Background_Simple">
	<g>
		<path style="fill:#92E3A9;" d="M485.643,265.12c0.082-1.078,0.167-2.15,0.306-3.219c1.497-11.491,8.481-97.868-100.024-206.504
			C269.308-61.36,141.865,69.78,119.851,104.058s-28.427,86.918-45.419,52.279c-10.505-21.414,16.876-48.228-21.908-37.027
			c-24.884,7.187-71.103,70.778-33.215,180.04c37.888,109.262,144.305,192.614,246.575,186.535
			c131.514-7.818,208.952-103.196,202.805-110.287c-6.147-7.091-55.13,14.063-44.368-0.671
			C434.915,360.422,482.553,305.661,485.643,265.12z"/>
		<path style="opacity:0.8;fill:#FFFFFF;" d="M485.643,265.12c0.082-1.078,0.167-2.15,0.306-3.219
			c1.497-11.491,8.481-97.868-100.024-206.504C269.308-61.36,141.865,69.78,119.851,104.058s-28.427,86.918-45.419,52.279
			c-10.505-21.414,16.876-48.228-21.908-37.027c-24.884,7.187-71.103,70.778-33.215,180.04
			c37.888,109.262,144.305,192.614,246.575,186.535c131.514-7.818,208.952-103.196,202.805-110.287
			c-6.147-7.091-55.13,14.063-44.368-0.671C434.915,360.422,482.553,305.661,485.643,265.12z"/>
	</g>
</g>
<g id="Clouds">
	<g>
		<path style="fill:none;stroke:#263238;stroke-miterlimit:10;" d="M390.222,46.412c-20.797-30.036-51.895-19.571-68.351,7.856
			c-4.27,7.116-9.962-2.847-22.059,0.712c-12.097,3.558-14.943,14.943-18.501,17.79c-3.558,2.846-6.404-3.558-15.655-2.846
			s-14.943,7.828-14.943,7.828l-27.752,5.693h234.114c0,0-9.962-22.059-22.059-27.752c-12.097-5.693-22.771,3.558-32.736,0.711
			C396.584,54.774,393.26,50.8,390.222,46.412z"/>
		<path style="fill:none;stroke:#263238;stroke-miterlimit:10;" d="M389.472,56.403c-5.379-3.593-8.711-9.247-13.122-13.831
			c-6.789-7.056-19.695-4.769-24.69,3.224c-6.399,10.238-2.048,15.357-5.119,17.149c-3.071,1.792-8.702-2.048-13.31,1.792
			c-4.607,3.839-3.327,7.679-5.631,9.214c-2.304,1.536-2.816-1.024-6.655,1.28c-3.839,2.304-4.351,4.351-4.351,4.351"/>
	</g>
	<g>
		<path style="fill:none;stroke:#263238;stroke-miterlimit:10;" d="M209.645,155.16c-8.563-12.366-21.366-8.057-28.141,3.234
			c-1.758,2.93-4.102-1.172-9.082,0.293c-4.98,1.465-6.152,6.152-7.617,7.324c-1.465,1.172-2.637-1.465-6.445-1.172
			c-3.809,0.293-6.152,3.223-6.152,3.223l-11.426,2.344h96.387c0,0-4.102-9.082-9.082-11.426c-4.98-2.344-9.375,1.465-13.478,0.293
			C212.264,158.603,210.896,156.966,209.645,155.16z"/>
		<path style="fill:none;stroke:#263238;stroke-miterlimit:10;" d="M209.337,159.273c-2.214-1.479-3.587-3.807-5.402-5.694
			c-2.795-2.905-8.109-1.963-10.165,1.327c-2.635,4.215-0.843,6.323-2.108,7.06c-1.264,0.738-3.583-0.843-5.48,0.738
			c-1.897,1.581-1.37,3.161-2.318,3.794c-0.949,0.632-1.159-0.422-2.74,0.527c-1.581,0.948-1.791,1.791-1.791,1.791"/>
	</g>
</g>
<g id="Trees">
	<g>
		<path style="fill:#92E3A9;" d="M494.703,333.113c0,27.337-16.172,49.498-36.12,49.498s-36.12-22.161-36.12-49.498
			s16.172-121.293,36.12-121.293S494.703,305.776,494.703,333.113z"/>
		<path style="opacity:0.5;fill:#FFFFFF;" d="M494.703,333.113c0,27.337-16.172,49.498-36.12,49.498s-36.12-22.161-36.12-49.498
			s16.172-121.293,36.12-121.293S494.703,305.776,494.703,333.113z"/>
		<polygon style="fill:#878787;" points="478.836,347.415 467.899,351.461 470.093,344.877 464.865,352.583 459.644,354.514 
			459.271,332.894 478.272,307.65 468.089,317.833 469.811,310.753 464.94,320.982 459.165,326.757 458.583,292.98 456.513,342.243 
			438.507,323.161 448.398,336.607 439.071,335.571 450.592,339.589 456.299,347.347 455.301,371.099 448.66,366.593 
			455.094,376.015 452.044,445.987 461.266,445.987 459.703,357.963 		"/>
		<g>
			<path style="fill:#FFFFFF;" d="M478.454,293.086c0,0,0.334,3.319-1.48,5.755c-1.814,2.436-5.089,3.067-5.089,3.067
				s-0.334-3.318,1.48-5.754C475.179,293.718,478.454,293.086,478.454,293.086z"/>
			<path style="fill:#FFFFFF;" d="M489.341,308.382c0,0,0.334,3.319-1.48,5.754c-1.814,2.436-5.089,3.068-5.089,3.068
				s-0.334-3.318,1.48-5.755C486.065,309.014,489.341,308.382,489.341,308.382z"/>
			<path style="fill:#FFFFFF;" d="M489.336,338.163c0,0-0.802,3.237-3.33,4.921c-2.528,1.683-5.825,1.175-5.825,1.175
				s0.803-3.237,3.331-4.921C486.04,337.655,489.336,338.163,489.336,338.163z"/>
			<path style="fill:#FFFFFF;" d="M429.547,338.163c0,0,0.802,3.237,3.331,4.921c2.528,1.683,5.824,1.175,5.824,1.175
				s-0.802-3.237-3.33-4.921C432.844,337.655,429.547,338.163,429.547,338.163z"/>
			<path style="fill:#FFFFFF;" d="M476.762,325.801c0,0,0.334,3.319-1.48,5.755c-1.814,2.436-5.089,3.067-5.089,3.067
				s-0.334-3.318,1.48-5.754C473.487,326.432,476.762,325.801,476.762,325.801z"/>
			<path style="fill:#FFFFFF;" d="M473.942,276.447c0,0,0.334,3.318-1.48,5.755c-1.814,2.436-5.089,3.067-5.089,3.067
				s-0.334-3.318,1.48-5.755C470.667,277.078,473.942,276.447,473.942,276.447z"/>
			<path style="fill:#FFFFFF;" d="M467.455,289.138c0,0,0.334,3.318-1.48,5.755c-1.814,2.436-5.089,3.067-5.089,3.067
				s-0.334-3.319,1.48-5.755C464.18,289.769,467.455,289.138,467.455,289.138z"/>
			<path style="fill:#FFFFFF;" d="M482.854,279.898c0,0,0.334,3.318-1.48,5.755c-1.814,2.436-5.089,3.067-5.089,3.067
				s-0.334-3.319,1.48-5.755C479.579,280.529,482.854,279.898,482.854,279.898z"/>
			<path style="fill:#FFFFFF;" d="M432.815,279.898c0,0-0.334,3.318,1.48,5.755c1.814,2.436,5.089,3.067,5.089,3.067
				s0.334-3.319-1.48-5.755C436.09,280.529,432.815,279.898,432.815,279.898z"/>
			<path style="fill:#FFFFFF;" d="M475.352,260.936c0,0,0.334,3.318-1.48,5.755c-1.814,2.436-5.089,3.067-5.089,3.067
				s-0.334-3.318,1.48-5.755C472.077,261.567,475.352,260.936,475.352,260.936z"/>
			<path style="fill:#FFFFFF;" d="M472.164,244.459c0,0,1.157,3.128,0.013,5.942c-1.144,2.814-4.155,4.247-4.155,4.247
				s-1.157-3.128-0.013-5.942C469.153,245.893,472.164,244.459,472.164,244.459z"/>
			<path style="fill:#FFFFFF;" d="M449.323,240.154c0,0,2.954,1.548,3.99,4.403c1.035,2.855-0.24,5.937-0.24,5.937
				s-2.955-1.548-3.99-4.403C448.047,243.235,449.323,240.154,449.323,240.154z"/>
			<path style="fill:#FFFFFF;" d="M459.974,259.857c0,0,2.105,2.587,1.93,5.62c-0.174,3.032-2.562,5.361-2.562,5.361
				s-2.105-2.587-1.93-5.62C457.587,262.185,459.974,259.857,459.974,259.857z"/>
			<path style="fill:#FFFFFF;" d="M459.41,230.526c0,0,2.104,2.587,1.93,5.62c-0.174,3.032-2.562,5.361-2.562,5.361
				s-2.105-2.587-1.93-5.62C457.023,232.855,459.41,230.526,459.41,230.526z"/>
			<path style="fill:#FFFFFF;" d="M435.505,293.086c0,0-0.334,3.319,1.48,5.755c1.814,2.436,5.089,3.067,5.089,3.067
				s0.334-3.318-1.48-5.754C438.779,293.718,435.505,293.086,435.505,293.086z"/>
			<path style="fill:#FFFFFF;" d="M429.3,311.136c0,0-0.334,3.319,1.48,5.755c1.814,2.436,5.089,3.067,5.089,3.067
				s0.334-3.318-1.48-5.755C432.575,311.767,429.3,311.136,429.3,311.136z"/>
			<path style="fill:#FFFFFF;" d="M445.77,317.689c0,0-0.334,3.319,1.48,5.755c1.814,2.436,5.089,3.067,5.089,3.067
				s0.334-3.319-1.48-5.755C449.045,318.32,445.77,317.689,445.77,317.689z"/>
			<path style="fill:#FFFFFF;" d="M450.273,292.679c0,0-1.27,3.084-0.23,5.937c1.04,2.854,3.997,4.396,3.997,4.396
				s1.27-3.084,0.23-5.937C453.23,294.222,450.273,292.679,450.273,292.679z"/>
			<path style="fill:#FFFFFF;" d="M438.61,359.229c0,0,3.335,0.061,5.614-1.947c2.279-2.007,2.64-5.323,2.64-5.323
				s-3.335-0.061-5.614,1.947C438.971,355.913,438.61,359.229,438.61,359.229z"/>
			<path style="fill:#FFFFFF;" d="M470.609,355.581c0,0,0.906,3.21,3.487,4.811c2.581,1.602,5.859,0.988,5.859,0.988
				s-0.906-3.21-3.487-4.811C473.887,354.968,470.609,355.581,470.609,355.581z"/>
			<path style="fill:#FFFFFF;" d="M442.33,276.447c0,0-0.334,3.318,1.48,5.755c1.814,2.436,5.089,3.067,5.089,3.067
				s0.334-3.318-1.48-5.755C445.605,277.078,442.33,276.447,442.33,276.447z"/>
			<path style="fill:#FFFFFF;" d="M442.273,261.782c0,0-0.334,3.318,1.48,5.755c1.814,2.436,5.089,3.067,5.089,3.067
				s0.334-3.318-1.48-5.754C445.548,262.413,442.273,261.782,442.273,261.782z"/>
		</g>
	</g>
	<g>
		<path style="fill:#92E3A9;" d="M410.826,364.265c0,19.793-11.709,35.837-26.152,35.837c-14.443,0-26.151-16.045-26.151-35.837
			c0-19.792,11.708-87.818,26.151-87.818C399.118,276.447,410.826,344.473,410.826,364.265z"/>
		<path style="opacity:0.5;fill:#FFFFFF;" d="M410.826,364.265c0,19.793-11.709,35.837-26.152,35.837
			c-14.443,0-26.151-16.045-26.151-35.837c0-19.792,11.708-87.818,26.151-87.818C399.118,276.447,410.826,344.473,410.826,364.265z"
			/>
		<polygon style="fill:#878787;" points="399.338,374.62 391.419,377.549 393.008,372.782 389.223,378.361 385.443,379.759 
			385.173,364.106 398.93,345.829 391.557,353.202 392.804,348.076 389.277,355.482 385.096,359.663 384.675,335.208 
			383.176,370.875 370.139,357.06 377.3,366.794 370.548,366.044 378.889,368.954 383.021,374.57 382.298,391.767 377.49,388.504 
			382.149,395.326 379.94,445.987 386.617,445.987 385.486,382.256 		"/>
		<g>
			<path style="fill:#FFFFFF;" d="M399.061,335.285c0,0,0.242,2.403-1.071,4.166c-1.313,1.764-3.685,2.221-3.685,2.221
				s-0.242-2.402,1.072-4.166C396.69,335.742,399.061,335.285,399.061,335.285z"/>
			<path style="fill:#FFFFFF;" d="M406.944,346.359c0,0,0.242,2.403-1.071,4.166c-1.313,1.764-3.684,2.221-3.684,2.221
				s-0.242-2.403,1.071-4.166C404.572,346.816,406.944,346.359,406.944,346.359z"/>
			<path style="fill:#FFFFFF;" d="M406.94,367.921c0,0-0.581,2.344-2.411,3.563c-1.83,1.219-4.217,0.851-4.217,0.851
				s0.581-2.344,2.411-3.563C404.554,367.553,406.94,367.921,406.94,367.921z"/>
			<path style="fill:#FFFFFF;" d="M363.652,367.921c0,0,0.581,2.344,2.411,3.563c1.83,1.219,4.217,0.851,4.217,0.851
				s-0.581-2.344-2.411-3.563C366.039,367.553,363.652,367.921,363.652,367.921z"/>
			<path style="fill:#FFFFFF;" d="M397.836,358.971c0,0,0.242,2.403-1.071,4.166c-1.313,1.764-3.684,2.221-3.684,2.221
				s-0.242-2.402,1.071-4.166C395.465,359.428,397.836,358.971,397.836,358.971z"/>
			<path style="fill:#FFFFFF;" d="M395.795,323.238c0,0,0.242,2.403-1.072,4.166c-1.313,1.764-3.684,2.221-3.684,2.221
				s-0.242-2.403,1.071-4.166C393.423,323.695,395.795,323.238,395.795,323.238z"/>
			<path style="fill:#FFFFFF;" d="M391.098,332.426c0,0,0.242,2.402-1.071,4.166c-1.313,1.764-3.684,2.221-3.684,2.221
				s-0.242-2.403,1.071-4.166C388.727,332.883,391.098,332.426,391.098,332.426z"/>
			<path style="fill:#FFFFFF;" d="M402.247,325.736c0,0,0.242,2.403-1.071,4.167c-1.313,1.764-3.684,2.221-3.684,2.221
				s-0.242-2.403,1.071-4.166C399.876,326.193,402.247,325.736,402.247,325.736z"/>
			<path style="fill:#FFFFFF;" d="M366.018,325.736c0,0-0.242,2.403,1.071,4.167c1.313,1.764,3.684,2.221,3.684,2.221
				s0.242-2.403-1.072-4.166C368.389,326.193,366.018,325.736,366.018,325.736z"/>
			<path style="fill:#FFFFFF;" d="M396.815,312.008c0,0,0.242,2.403-1.071,4.166c-1.313,1.764-3.684,2.221-3.684,2.221
				s-0.242-2.403,1.072-4.166C394.444,312.465,396.815,312.008,396.815,312.008z"/>
			<path style="fill:#FFFFFF;" d="M394.508,300.078c0,0,0.838,2.265,0.01,4.302c-0.828,2.037-3.008,3.075-3.008,3.075
				s-0.838-2.265-0.01-4.302C392.327,301.116,394.508,300.078,394.508,300.078z"/>
			<path style="fill:#FFFFFF;" d="M377.97,296.961c0,0,2.139,1.12,2.889,3.188c0.75,2.067-0.174,4.298-0.174,4.298
				s-2.139-1.12-2.889-3.188C377.047,299.192,377.97,296.961,377.97,296.961z"/>
			<path style="fill:#FFFFFF;" d="M385.682,311.226c0,0,1.524,1.873,1.398,4.069c-0.126,2.195-1.855,3.882-1.855,3.882
				s-1.524-1.873-1.398-4.069C383.953,312.912,385.682,311.226,385.682,311.226z"/>
			<path style="fill:#FFFFFF;" d="M385.274,289.991c0,0,1.524,1.873,1.397,4.069c-0.126,2.195-1.855,3.882-1.855,3.882
				s-1.524-1.873-1.398-4.069C383.545,291.677,385.274,289.991,385.274,289.991z"/>
			<path style="fill:#FFFFFF;" d="M367.966,335.285c0,0-0.242,2.403,1.071,4.166c1.313,1.764,3.685,2.221,3.685,2.221
				s0.242-2.402-1.072-4.166C370.337,335.742,367.966,335.285,367.966,335.285z"/>
			<path style="fill:#FFFFFF;" d="M363.473,348.353c0,0-0.242,2.403,1.072,4.166c1.313,1.764,3.684,2.221,3.684,2.221
				s0.242-2.403-1.071-4.166C365.844,348.81,363.473,348.353,363.473,348.353z"/>
			<path style="fill:#FFFFFF;" d="M375.398,353.097c0,0-0.242,2.403,1.071,4.166c1.313,1.764,3.684,2.221,3.684,2.221
				s0.242-2.403-1.072-4.166C377.769,353.555,375.398,353.097,375.398,353.097z"/>
			<path style="fill:#FFFFFF;" d="M378.658,334.99c0,0-0.92,2.233-0.167,4.299c0.753,2.066,2.894,3.183,2.894,3.183
				s0.92-2.233,0.167-4.299C380.799,336.107,378.658,334.99,378.658,334.99z"/>
			<path style="fill:#FFFFFF;" d="M370.214,383.173c0,0,2.414,0.044,4.065-1.409c1.65-1.453,1.911-3.854,1.911-3.854
				s-2.414-0.044-4.065,1.409C370.475,380.772,370.214,383.173,370.214,383.173z"/>
			<path style="fill:#FFFFFF;" d="M393.382,380.532c0,0,0.656,2.324,2.524,3.483c1.868,1.16,4.242,0.715,4.242,0.715
				s-0.656-2.324-2.524-3.484C395.755,380.088,393.382,380.532,393.382,380.532z"/>
			<path style="fill:#FFFFFF;" d="M372.908,323.238c0,0-0.242,2.403,1.071,4.166c1.313,1.764,3.685,2.221,3.685,2.221
				s0.242-2.403-1.071-4.166C375.279,323.695,372.908,323.238,372.908,323.238z"/>
			<path style="fill:#FFFFFF;" d="M372.866,312.62c0,0-0.242,2.402,1.072,4.166c1.313,1.764,3.684,2.221,3.684,2.221
				s0.242-2.403-1.071-4.166C375.237,313.077,372.866,312.62,372.866,312.62z"/>
		</g>
	</g>
	<g>
		<path style="fill:#92E3A9;" d="M131.103,273.695c0,41.728-24.685,75.555-55.135,75.555s-55.134-33.827-55.134-75.555
			c0-41.728,24.685-185.144,55.134-185.144S131.103,231.967,131.103,273.695z"/>
		<path style="opacity:0.5;fill:#FFFFFF;" d="M131.103,273.695c0,41.728-24.685,75.555-55.135,75.555s-55.134-33.827-55.134-75.555
			c0-41.728,24.685-185.144,55.134-185.144S131.103,231.967,131.103,273.695z"/>
		<polygon style="fill:#878787;" points="106.883,295.526 90.188,301.701 93.538,291.651 85.556,303.414 77.588,306.361 
			77.019,273.361 106.022,234.828 90.478,250.371 93.107,239.563 85.672,255.178 76.857,263.992 75.968,212.434 72.809,287.63 
			45.324,258.504 60.421,279.027 46.185,277.446 63.77,283.58 72.481,295.422 70.958,331.677 60.821,324.799 70.642,339.18 
			65.987,445.987 80.064,445.987 77.678,311.626 		"/>
		<g>
			<path style="fill:#FFFFFF;" d="M106.299,212.597c0,0,0.51,5.065-2.258,8.784c-2.769,3.719-7.768,4.682-7.768,4.682
				s-0.51-5.065,2.259-8.784C101.301,213.561,106.299,212.597,106.299,212.597z"/>
			<path style="fill:#FFFFFF;" d="M122.917,235.945c0,0,0.51,5.066-2.259,8.784c-2.769,3.719-7.768,4.682-7.768,4.682
				s-0.51-5.065,2.259-8.784C117.918,236.909,122.917,235.945,122.917,235.945z"/>
			<path style="fill:#FFFFFF;" d="M122.91,281.403c0,0-1.225,4.941-5.084,7.511c-3.859,2.57-8.891,1.794-8.891,1.794
				s1.225-4.941,5.084-7.511C117.878,280.627,122.91,281.403,122.91,281.403z"/>
			<path style="fill:#FFFFFF;" d="M31.648,281.403c0,0,1.225,4.941,5.084,7.511c3.859,2.57,8.89,1.794,8.89,1.794
				s-1.225-4.941-5.084-7.511C36.679,280.627,31.648,281.403,31.648,281.403z"/>
			<path style="fill:#FFFFFF;" d="M103.717,262.533c0,0,0.51,5.065-2.259,8.784c-2.769,3.719-7.768,4.682-7.768,4.682
				s-0.51-5.065,2.259-8.784C98.718,263.497,103.717,262.533,103.717,262.533z"/>
			<path style="fill:#FFFFFF;" d="M99.412,187.199c0,0,0.51,5.065-2.259,8.784c-2.769,3.718-7.768,4.682-7.768,4.682
				s-0.51-5.065,2.258-8.784C94.413,188.162,99.412,187.199,99.412,187.199z"/>
			<path style="fill:#FFFFFF;" d="M89.511,206.57c0,0,0.51,5.065-2.259,8.784c-2.769,3.719-7.768,4.682-7.768,4.682
				s-0.51-5.065,2.259-8.784C84.512,207.534,89.511,206.57,89.511,206.57z"/>
			<path style="fill:#FFFFFF;" d="M113.016,192.466c0,0,0.51,5.065-2.259,8.784c-2.769,3.718-7.768,4.682-7.768,4.682
				s-0.51-5.066,2.259-8.784C108.017,193.43,113.016,192.466,113.016,192.466z"/>
			<path style="fill:#FFFFFF;" d="M36.635,192.466c0,0-0.51,5.065,2.259,8.784c2.769,3.718,7.768,4.682,7.768,4.682
				s0.51-5.066-2.259-8.784C41.634,193.43,36.635,192.466,36.635,192.466z"/>
			<path style="fill:#FFFFFF;" d="M101.564,163.522c0,0,0.51,5.066-2.259,8.784c-2.769,3.719-7.768,4.682-7.768,4.682
				s-0.51-5.065,2.259-8.784C96.565,164.486,101.564,163.522,101.564,163.522z"/>
			<path style="fill:#FFFFFF;" d="M96.699,138.372c0,0,1.766,4.775,0.021,9.07c-1.746,4.295-6.342,6.483-6.342,6.483
				s-1.766-4.775-0.02-9.07C92.102,140.56,96.699,138.372,96.699,138.372z"/>
			<path style="fill:#FFFFFF;" d="M61.833,131.8c0,0,4.51,2.362,6.09,6.721c1.581,4.358-0.366,9.062-0.366,9.062
				s-4.51-2.362-6.091-6.721C59.886,136.503,61.833,131.8,61.833,131.8z"/>
			<path style="fill:#FFFFFF;" d="M78.092,161.875c0,0,3.213,3.949,2.947,8.578c-0.266,4.629-3.911,8.183-3.911,8.183
				s-3.213-3.949-2.946-8.578C74.448,165.429,78.092,161.875,78.092,161.875z"/>
			<path style="fill:#FFFFFF;" d="M77.231,117.104c0,0,3.212,3.95,2.946,8.578c-0.266,4.628-3.91,8.184-3.91,8.184
				s-3.213-3.949-2.947-8.578C73.587,120.659,77.231,117.104,77.231,117.104z"/>
			<path style="fill:#FFFFFF;" d="M40.741,212.597c0,0-0.51,5.065,2.258,8.784c2.769,3.719,7.768,4.682,7.768,4.682
				s0.51-5.065-2.259-8.784C45.74,213.561,40.741,212.597,40.741,212.597z"/>
			<path style="fill:#FFFFFF;" d="M31.27,240.148c0,0-0.51,5.065,2.259,8.784c2.769,3.719,7.768,4.682,7.768,4.682
				s0.51-5.065-2.259-8.784C36.269,241.112,31.27,240.148,31.27,240.148z"/>
			<path style="fill:#FFFFFF;" d="M56.41,250.151c0,0-0.51,5.065,2.259,8.784c2.769,3.718,7.768,4.682,7.768,4.682
				s0.51-5.066-2.259-8.784C61.409,251.114,56.41,250.151,56.41,250.151z"/>
			<path style="fill:#FFFFFF;" d="M63.283,211.976c0,0-1.939,4.707-0.351,9.063c1.588,4.356,6.101,6.71,6.101,6.71
				s1.939-4.707,0.351-9.063C67.797,214.33,63.283,211.976,63.283,211.976z"/>
			<path style="fill:#FFFFFF;" d="M45.481,313.558c0,0,5.09,0.093,8.569-2.971c3.479-3.064,4.03-8.126,4.03-8.126
				s-5.09-0.093-8.569,2.971C46.032,308.497,45.481,313.558,45.481,313.558z"/>
			<path style="fill:#FFFFFF;" d="M94.325,307.99c0,0,1.383,4.9,5.322,7.344c3.939,2.444,8.943,1.508,8.943,1.508
				s-1.383-4.899-5.322-7.344C99.329,307.054,94.325,307.99,94.325,307.99z"/>
			<path style="fill:#FFFFFF;" d="M51.16,187.199c0,0-0.51,5.065,2.259,8.784c2.769,3.718,7.768,4.682,7.768,4.682
				s0.51-5.065-2.259-8.784C56.159,188.162,51.16,187.199,51.16,187.199z"/>
			<path style="fill:#FFFFFF;" d="M51.072,164.814c0,0-0.51,5.065,2.259,8.784c2.769,3.719,7.768,4.682,7.768,4.682
				s0.51-5.066-2.259-8.784C56.071,165.777,51.072,164.814,51.072,164.814z"/>
		</g>
	</g>
</g>
<g id="Stop_Sign">
	<g>
		<g>
			
				<rect x="415.383" y="184.323" style="fill:#92E3A9;stroke:#263238;stroke-linecap:round;stroke-linejoin:round;stroke-miterlimit:10;" width="7.008" height="252.346"/>
			
				<rect x="415.383" y="184.323" style="fill:#263238;stroke:#263238;stroke-linecap:round;stroke-linejoin:round;stroke-miterlimit:10;" width="7.008" height="19.623"/>
			<polygon style="fill:#FFFFFF;stroke:#263238;stroke-linecap:round;stroke-linejoin:round;stroke-miterlimit:10;" points="
				434.587,120.74 403.188,120.74 380.984,142.943 380.984,174.343 403.188,196.546 434.587,196.546 456.79,174.343 456.79,142.943 
							"/>
			<polygon style="fill:#263238;stroke:#263238;stroke-linecap:round;stroke-linejoin:round;stroke-miterlimit:10;" points="
				432.752,125.171 405.023,125.171 385.415,144.779 385.415,172.508 405.023,192.116 432.752,192.116 452.36,172.508 
				452.36,144.779 			"/>
			<g>
				<path style="fill:#92E3A9;" d="M396.278,171.508c-1.456,0-2.672-0.258-3.648-0.776c-0.977-0.517-1.715-1.316-2.212-2.398
					c-0.499-1.082-0.776-2.485-0.833-4.209l4.395-0.661c0.02,0.996,0.11,1.8,0.273,2.413c0.162,0.613,0.393,1.054,0.689,1.322
					c0.297,0.268,0.656,0.402,1.077,0.402c0.536,0,0.886-0.182,1.049-0.546c0.162-0.364,0.244-0.747,0.244-1.149
					c0-0.958-0.229-1.767-0.689-2.427c-0.46-0.661-1.082-1.326-1.867-1.997l-2.012-1.752c-0.881-0.747-1.623-1.594-2.226-2.542
					c-0.603-0.948-0.905-2.121-0.905-3.52c0-1.972,0.584-3.48,1.752-4.524c1.168-1.044,2.759-1.566,4.77-1.566
					c1.244,0,2.245,0.211,3.002,0.632c0.756,0.422,1.331,0.973,1.724,1.652c0.393,0.68,0.661,1.398,0.805,2.154
					c0.143,0.757,0.225,1.479,0.244,2.169l-4.425,0.546c-0.019-0.689-0.062-1.288-0.129-1.795c-0.067-0.507-0.206-0.9-0.417-1.178
					c-0.211-0.277-0.536-0.417-0.977-0.417c-0.478,0-0.828,0.201-1.048,0.603c-0.221,0.402-0.331,0.804-0.331,1.207
					c0,0.862,0.206,1.566,0.618,2.112c0.411,0.545,0.952,1.116,1.623,1.709l1.925,1.695c1.015,0.862,1.872,1.838,2.571,2.93
					c0.698,1.092,1.048,2.442,1.048,4.051c0,1.091-0.249,2.083-0.746,2.973c-0.499,0.891-1.202,1.594-2.112,2.111
					C398.6,171.25,397.522,171.508,396.278,171.508z"/>
				<path style="fill:#92E3A9;" d="M406.965,171.163v-19.449h-3.505v-3.821h12.151v3.821h-3.476v19.449H406.965z"/>
				<path style="fill:#92E3A9;" d="M424.087,171.508c-1.743,0-3.122-0.307-4.137-0.919c-1.016-0.613-1.743-1.494-2.184-2.643
					c-0.44-1.149-0.661-2.518-0.661-4.108v-8.647c0-1.608,0.221-2.978,0.661-4.108c0.44-1.13,1.168-1.997,2.184-2.6
					c1.015-0.603,2.394-0.905,4.137-0.905c1.762,0,3.155,0.302,4.18,0.905c1.025,0.604,1.757,1.47,2.198,2.6
					c0.44,1.13,0.66,2.499,0.66,4.108v8.647c0,1.59-0.22,2.959-0.66,4.108c-0.441,1.149-1.174,2.03-2.198,2.643
					C427.242,171.202,425.848,171.508,424.087,171.508z M424.087,167.86c0.536,0,0.929-0.134,1.178-0.402
					c0.249-0.268,0.412-0.613,0.488-1.034c0.076-0.421,0.115-0.852,0.115-1.292v-11.204c0-0.46-0.039-0.895-0.115-1.307
					c-0.076-0.412-0.239-0.752-0.488-1.02c-0.249-0.268-0.642-0.402-1.178-0.402c-0.498,0-0.872,0.134-1.12,0.402
					c-0.249,0.268-0.412,0.608-0.488,1.02c-0.077,0.412-0.115,0.847-0.115,1.307v11.204c0,0.44,0.033,0.872,0.101,1.292
					c0.066,0.421,0.22,0.766,0.46,1.034C423.163,167.726,423.55,167.86,424.087,167.86z"/>
				<path style="fill:#92E3A9;" d="M434.257,171.163v-23.27h7.814c1.397,0,2.547,0.264,3.447,0.79
					c0.899,0.527,1.57,1.293,2.011,2.298c0.44,1.005,0.661,2.227,0.661,3.663c0,1.8-0.298,3.174-0.891,4.123
					c-0.594,0.948-1.398,1.604-2.413,1.968c-1.016,0.364-2.155,0.546-3.419,0.546h-2.068v9.882H434.257z M439.399,157.69h1.724
					c0.632,0,1.11-0.115,1.436-0.345c0.325-0.23,0.541-0.575,0.646-1.034c0.105-0.46,0.157-1.043,0.157-1.752
					c0-0.593-0.043-1.115-0.129-1.566c-0.086-0.45-0.292-0.809-0.617-1.078c-0.326-0.268-0.833-0.402-1.523-0.402h-1.694V157.69z"/>
			</g>
		</g>
		
			<rect x="393.04" y="419.795" style="fill:#707070;stroke:#263238;stroke-linecap:round;stroke-linejoin:round;stroke-miterlimit:10;" width="50.832" height="26.191"/>
	</g>
</g>
<g id="Floor">
	
		<line style="fill:none;stroke:#263238;stroke-linecap:round;stroke-linejoin:round;stroke-miterlimit:10;" x1="487.716" y1="445.987" x2="10.589" y2="445.987"/>
</g>
<g id="Car">
	<g>
		<path style="fill:#263238;stroke:#263238;stroke-linecap:round;stroke-linejoin:round;stroke-miterlimit:10;" d="M91.041,426.66
			h75.181c0,0,14.378,7.371,29.856,6.634c15.478-0.737,29.847-7.371,29.847-7.371h95.082V406.76H93.252L91.041,426.66z"/>
		<g>
			<path style="fill:#263238;stroke:#263238;stroke-linecap:round;stroke-linejoin:round;stroke-miterlimit:10;" d="
				M341.536,358.446l-26.169,0.035l0.116,86.818l26.17-0.035c10.117-0.013,18.293-19.459,18.26-43.433
				C359.88,377.856,351.653,358.432,341.536,358.446z"/>
			
				<ellipse transform="matrix(1 -0.0013 0.0013 1 -0.5369 0.422)" style="fill:#263238;stroke:#263238;stroke-linecap:round;stroke-linejoin:round;stroke-miterlimit:10;" cx="315.425" cy="401.89" rx="18.319" ry="43.409"/>
			
				<ellipse transform="matrix(1 -0.0013 0.0013 1 -0.5367 0.4218)" style="fill:#707070;stroke:#263238;stroke-linecap:round;stroke-linejoin:round;stroke-miterlimit:10;" cx="315.425" cy="401.89" rx="12.318" ry="29.191"/>
		</g>
		<g>
			<path style="fill:#263238;stroke:#263238;stroke-linecap:round;stroke-linejoin:round;stroke-miterlimit:10;" d="M80.139,359.13
				l-29.462,0.039l0.116,86.818l29.462-0.039c11.39-0.015,20.598-19.462,20.566-43.436
				C100.789,378.537,91.529,359.114,80.139,359.13z"/>
			
				<ellipse transform="matrix(1 -0.0013 0.0013 1 -0.5384 0.0682)" style="fill:#263238;stroke:#263238;stroke-linecap:round;stroke-linejoin:round;stroke-miterlimit:10;" cx="50.735" cy="402.578" rx="20.624" ry="43.409"/>
			
				<ellipse transform="matrix(1 -0.0013 0.0013 1 -0.538 0.0682)" style="fill:#707070;stroke:#263238;stroke-linecap:round;stroke-linejoin:round;stroke-miterlimit:10;" cx="50.735" cy="402.578" rx="13.868" ry="29.191"/>
		</g>
		<path style="fill:#263238;stroke:#263238;stroke-linecap:round;stroke-linejoin:round;stroke-miterlimit:10;" d="M57.734,266.956
			l-6.238-4.391c0,0,4.759-4.772,3.655-8.436c-1.105-3.664-13.938-5.847-19.068-4.007c-5.13,1.84-13.555,6.617-13.549,10.649
			c0.005,4.032,0.376,6.965,4.041,6.593c3.665-0.371,20.9,4.005,20.9,4.005l6.235,2.191L57.734,266.956z"/>
		<path style="fill:#263238;stroke:#263238;stroke-linecap:round;stroke-linejoin:round;stroke-miterlimit:10;" d="M322.772,266.602
			l6.226-4.407c0,0-4.772-4.759-3.677-8.426c1.095-3.667,13.922-5.884,19.057-4.058c5.135,1.826,13.572,6.58,13.578,10.613
			c0.005,4.032-0.357,6.966-4.024,6.604c-3.666-0.362-20.89,4.06-20.89,4.06l-6.229,2.208L322.772,266.602z"/>
		<path style="fill:#92E3A9;stroke:#263238;stroke-linecap:round;stroke-linejoin:round;stroke-miterlimit:10;" d="M351.091,335.848
			c-1.115-11.729-9.574-32.246-9.574-32.246s-0.003-2.566-0.743-7.697c-0.593-4.112-11.09-21.861-19.586-36.103
			c-4.974-9.829-23.836-46.79-28.921-52.178c-5.874-6.224-11.378-10.616-11.378-10.616c-1.836-2.564-9.173-6.586-14.673-6.945
			c-4-0.261-71.446-1.948-75.885-1.732c-4.44-0.204-72.247,1.663-76.246,1.935c-5.498,0.374-12.825,4.416-14.654,6.985
			c0,0-5.493,4.406-11.35,10.646c-5.071,5.402-23.833,42.413-28.781,52.255c-8.458,14.265-18.908,32.042-19.49,36.156
			c-0.726,5.133-0.723,7.699-0.723,7.699s-8.404,20.54-9.488,32.272c-1.084,11.732,3.365,49.117,4.475,57.181
			c1.111,8.063,8.452,15.385,11.389,18.314c2.937,2.929,10.639,6.218,15.039,6.945c3.504,0.579,71.163,1.538,105.578,1.895
			l17.23,0.141c0,0,2.625-0.033,7.148-0.09c4.524,0.046,7.148,0.071,7.148,0.071l9.164-0.176
			c34.414-0.449,110.135-1.599,113.637-2.188c4.398-0.739,12.092-4.048,15.021-6.985c2.929-2.937,10.25-10.278,11.34-18.344
			C347.857,384.974,352.206,347.577,351.091,335.848z"/>
		<path style="fill:#263238;stroke:#263238;stroke-linecap:round;stroke-linejoin:round;stroke-miterlimit:10;" d="M60.307,272.451
			l261.005-0.349c0,0-32.346-64.785-36.383-68.812c-4.038-4.027-4.038-4.027-4.038-4.027s-43.468-5.624-95.868-5.554
			c-35.132,0.047-85.223,5.429-87.786,7.999s-31.078,60.837-32.906,64.505C62.503,269.882,60.307,272.451,60.307,272.451z"/>
		<path style="fill:#FFFFFF;stroke:#263238;stroke-linecap:round;stroke-linejoin:round;stroke-miterlimit:10;" d="M105.235,207.284
			c0,0-18.857,38.204-17.763,40.384c1.094,2.18,211.256-0.282,211.256-0.282s2.546,0.724,2.178-2.912
			c-0.368-3.636-18.228-35.609-20.048-37.061C279.038,205.961,105.235,207.284,105.235,207.284z"/>
		<path style="fill:#263238;stroke:#263238;stroke-linecap:round;stroke-linejoin:round;stroke-miterlimit:10;" d="M205.266,216.617
			l-30.005,0.04c-3.343,0.005-6.057-2.702-6.062-6.046l-0.003-1.834c-0.004-3.343,2.702-6.057,6.046-6.062l30.005-0.04
			c3.343-0.005,6.057,2.702,6.062,6.046l0.003,1.834C211.316,213.898,208.609,216.612,205.266,216.617z"/>
		<path style="fill:#263238;stroke:#263238;stroke-linecap:round;stroke-linejoin:round;stroke-miterlimit:10;" d="M87.142,272.394
			c0,0,11.956-32.013,15.953-34.564c3.996-2.551,8.721-4.375,8.721-4.375s-5.456-1.084-5.458-2.538
			c-0.002-1.454,2.157-18.183,6.519-19.28c4.362-1.097,36.361-0.049,36.361-0.049s1.82,1.816,2.187,3.997
			c0.367,2.181,2.924,11.632,0.382,13.817c-2.542,2.185-7.268,3.282-7.268,3.282s9.459,3.987,10.919,7.985
			c1.46,3.998,0.042,31.27,0.042,31.27L87.142,272.394z"/>
		<path style="fill:#263238;stroke:#263238;stroke-linecap:round;stroke-linejoin:round;stroke-miterlimit:10;" d="M284.783,272.13
			c0,0-12.042-31.981-16.045-34.521c-4.003-2.54-8.732-4.352-8.732-4.352s5.453-1.098,5.451-2.552
			c-0.002-1.454-2.206-18.178-6.571-19.262c-4.365-1.085-36.361,0.049-36.361,0.049s-1.816,1.82-2.176,4.003
			c-0.361,2.182-2.893,11.639-0.345,13.818c2.548,2.178,7.277,3.263,7.277,3.263s-9.448,4.012-10.897,8.014
			c-1.449,4.002,0.042,31.27,0.042,31.27L284.783,272.13z"/>
		<path style="fill:#FFFFFF;" d="M179.378,194.09l-62.884,77.768l33.157-0.044l58.442-77.444
			c-7.443-0.216-15.219-0.339-23.206-0.329C183.088,194.043,181.248,194.06,179.378,194.09z"/>
		<path style="fill:none;stroke:#263238;stroke-linecap:round;stroke-linejoin:round;stroke-miterlimit:10;" d="M58.848,277.952
			c0,0-9.131,25.306-11.313,38.14c-2.182,12.833-3.637,21.267-3.637,21.267"/>
		<path style="fill:none;stroke:#263238;stroke-linecap:round;stroke-linejoin:round;stroke-miterlimit:10;" d="M322.784,275.766
			c0,0,9.197,24.182,10.676,33.711c1.479,9.529,3.332,24.19,3.332,24.19"/>
		<path style="fill:#FFFFFF;stroke:#263238;stroke-linecap:round;stroke-linejoin:round;stroke-miterlimit:10;" d="M49.727,310.223
			l11.74,6.949l68.941,17.504l4.051,14.291l-31.218-0.152l-37.514-4.821l-14.13-2.66l-7.7-3.976
			C43.898,337.358,46.928,313.454,49.727,310.223z"/>
		<path style="fill:#FFFFFF;stroke:#263238;stroke-linecap:round;stroke-linejoin:round;stroke-miterlimit:10;" d="M332.32,309.845
			l-11.721,6.981l-68.894,17.688l-4.013,14.302l31.217-0.236l37.501-4.921l14.123-2.698l7.689-3.997
			C338.222,336.965,335.128,313.069,332.32,309.845z"/>
		
			<line style="fill:none;stroke:#263238;stroke-linecap:round;stroke-linejoin:round;stroke-miterlimit:10;" x1="137.229" y1="349.28" x2="243.439" y2="349.138"/>
		<path style="fill:none;stroke:#263238;stroke-linecap:round;stroke-linejoin:round;stroke-miterlimit:10;" d="M133.447,334.815
			c0,0,74.965,7.135,114.893,0.425"/>
		<path style="fill:none;stroke:#263238;stroke-linecap:round;stroke-linejoin:round;stroke-miterlimit:10;" d="M341.239,335.984
			c0,0,5.494-3.77,7.81-3.194"/>
		<path style="fill:none;stroke:#263238;stroke-linecap:round;stroke-linejoin:round;stroke-miterlimit:10;" d="M41.128,334.649
			c0,0-5.794-4.333-8.977-4.04"/>
		<path style="fill:#263238;stroke:#263238;stroke-linecap:round;stroke-linejoin:round;stroke-miterlimit:10;" d="M68.803,362.443
			c0,0-1.748,19.278-1.032,24.244c0.716,4.966,4.272,11.465,9.597,13.823s20.346,4.348,25.904,4.932
			c5.559,0.584,26.015-0.863,26.842-1.337c0.827-0.474,2.124-3.669,2.359-4.26c0.236-0.592,7.896-20.469,7.062-24.961
			c-0.834-4.493-3.207-10.639-3.8-11.584c-0.592-0.945-2.84-1.652-2.84-1.652s-54.991-1.582-56.882-1.343
			C74.122,360.544,70.691,359.721,68.803,362.443z"/>
		<path style="fill:#FFFFFF;stroke:#263238;stroke-linecap:round;stroke-linejoin:round;stroke-miterlimit:10;" d="M138.747,364.634
			c-0.7-2.461-2.89-4.177-5.45-4.271c-16.073-0.589-53.738-1.939-56.396-1.661c-0.624,0.063-1.314,0.086-2.043,0.111
			c-2.911,0.098-6.534,0.221-7.25,3.462c-0.011,0.048-0.019,0.097-0.024,0.146c-0.256,2.328-2.432,22.91-0.188,28.657
			c3.253,8.33,12.12,13.043,27.907,14.834c5.599,0.634,10.958,0.871,15.764,0.865c11.344-0.015,19.604-1.385,20.628-2.07
			c1.742-1.164,9.293-24.37,9.288-28.54C140.979,373.111,139.765,368.208,138.747,364.634z M69.214,378.261l68.763-0.092
			c-0.378,1.969-1.151,4.789-2.08,7.828l-66.614,0.089C69.125,383.873,69.124,381.129,69.214,378.261z M69.325,375.507
			c0.133-2.739,0.326-5.461,0.524-7.826l66.848-0.089c0.861,3.292,1.38,5.994,1.5,7.823L69.325,375.507z M74.951,361.565
			c0.743-0.025,1.512-0.051,2.229-0.124c2.026-0.205,30.267,0.73,56.017,1.674c1.162,0.043,2.176,0.716,2.682,1.723l-65.781,0.088
			c0.076-0.792,0.149-1.506,0.216-2.116C70.601,361.791,72.422,361.65,74.951,361.565z M69.962,390.074
			c-0.131-0.337-0.242-0.757-0.339-1.234l65.409-0.087c-0.881,2.74-1.825,5.494-2.669,7.828l-57.365,0.077
			C72.092,394.46,70.751,392.096,69.962,390.074z M95.613,403.174c-7.034-0.798-12.106-2.151-15.807-3.768l51.534-0.069
			c-0.565,1.472-1.025,2.572-1.301,3.091C127.663,403.099,113.394,405.189,95.613,403.174z"/>
		<path style="fill:#263238;stroke:#263238;stroke-linecap:round;stroke-linejoin:round;stroke-miterlimit:10;" d="M250.127,361.392
			c0,0-3.375,0.331-4.243,2.946c-0.868,2.615-2.706,11.982-2.269,13.506c0.438,1.524,7.764,24.055,8.418,25.034
			c0.655,0.979,5.012,2.062,5.338,1.953c0.327-0.109,16.335,0.849,27.985-0.473c11.65-1.322,19.487-3.62,22.316-5.583
			c2.829-1.964,8.685-4.725,8.2-8.03c-0.484-3.305-0.623-25.955-1.388-28.132c-0.765-2.177-3.706-2.5-4.795-2.716
			c-1.089-0.216-33.647,0.589-33.647,0.589L250.127,361.392z"/>
		<path style="fill:#FFFFFF;stroke:#263238;stroke-linecap:round;stroke-linejoin:round;stroke-miterlimit:10;" d="M244.452,364.492
			c0.693-2.463,2.879-4.185,5.438-4.286c16.071-0.632,53.732-2.083,56.392-1.812c0.625,0.061,1.314,0.083,2.044,0.106
			c2.911,0.09,6.535,0.204,7.259,3.442c0.011,0.049,0.019,0.097,0.024,0.146c0.262,2.327,2.493,22.903,0.264,28.656
			c-3.23,8.339-12.085,13.076-27.867,14.909c-5.597,0.649-10.955,0.901-15.762,0.907c-11.344,0.015-19.608-1.332-20.633-2.015
			c-1.745-1.16-9.358-24.345-9.364-28.515C242.243,372.976,243.444,368.069,244.452,364.492z M314.022,377.934l-68.763,0.092
			c0.383,1.968,1.163,4.786,2.101,7.822l66.614-0.089C314.125,383.546,314.119,380.802,314.022,377.934z M313.903,375.18
			c-0.14-2.738-0.341-5.46-0.545-7.824l-66.848,0.089c-0.852,3.295-1.364,5.997-1.479,7.827L313.903,375.18z M308.24,361.253
			c-0.743-0.023-1.512-0.047-2.229-0.118c-2.027-0.2-30.265,0.811-56.012,1.824c-1.162,0.046-2.174,0.721-2.677,1.73l65.781-0.088
			c-0.078-0.791-0.153-1.506-0.221-2.116C312.59,361.467,310.769,361.332,308.24,361.253z M313.305,389.749
			c0.13-0.337,0.24-0.758,0.335-1.235l-65.408,0.087c0.888,2.738,1.84,5.489,2.69,7.821l57.365-0.077
			C311.186,394.14,312.521,391.773,313.305,389.749z M287.689,402.918c7.031-0.816,12.1-2.183,15.797-3.81l-51.534,0.069
			c0.569,1.471,1.032,2.569,1.309,3.087C255.639,402.928,269.914,404.98,287.689,402.918z"/>
		
			<rect x="147.093" y="380.765" transform="matrix(1 -0.0013 0.0013 1 -0.5217 0.2571)" style="fill:#263238;" width="89.926" height="19.292"/>
		<g>
			<path style="fill:#FFFFFF;stroke:#263238;stroke-linecap:round;stroke-linejoin:round;stroke-miterlimit:10;" d="
				M322.904,393.659c-0.007-5.499-4.471-9.951-9.971-9.944c-5.499,0.007-9.951,4.471-9.944,9.97c0.007,5.499,4.471,9.951,9.97,9.944
				C318.46,403.622,322.911,399.158,322.904,393.659z"/>
			<path style="fill:#263238;stroke:#263238;stroke-linecap:round;stroke-linejoin:round;stroke-miterlimit:10;" d="
				M319.094,393.664c-0.004-3.395-2.76-6.144-6.156-6.139c-3.395,0.005-6.144,2.76-6.139,6.156c0.005,3.395,2.761,6.144,6.156,6.139
				C316.35,399.815,319.099,397.059,319.094,393.664z"/>
		</g>
		<g>
			<path style="fill:#FFFFFF;stroke:#263238;stroke-linecap:round;stroke-linejoin:round;stroke-miterlimit:10;" d="M85.176,393.977
				c-0.007-5.499-4.471-9.951-9.97-9.944c-5.499,0.007-9.951,4.471-9.944,9.971c0.007,5.499,4.471,9.951,9.97,9.944
				C80.731,403.94,85.183,399.476,85.176,393.977z"/>
			<path style="fill:#263238;stroke:#263238;stroke-linecap:round;stroke-linejoin:round;stroke-miterlimit:10;" d="M81.366,393.982
				c-0.005-3.395-2.76-6.144-6.156-6.139c-3.395,0.004-6.144,2.76-6.139,6.156c0.005,3.395,2.76,6.144,6.156,6.139
				C78.622,400.133,81.37,397.377,81.366,393.982z"/>
		</g>
		<path style="fill:none;stroke:#263238;stroke-linecap:round;stroke-linejoin:round;stroke-miterlimit:10;" d="M47.842,398.383
			c0,0,9.03,4.655,13.078,6.517s8.715,1.544,8.715,1.544l156.208,3.214c0,0,93.348-0.747,100.19-3.246
			c6.842-2.498,10.569-7.482,10.569-7.482"/>
		
			<line style="fill:none;stroke:#263238;stroke-linecap:round;stroke-linejoin:round;stroke-miterlimit:10;" x1="141.452" y1="360.607" x2="241.957" y2="360.473"/>
	</g>
	<g>
		<g>
			<path style="fill:none;stroke:#263238;stroke-linecap:round;stroke-linejoin:round;stroke-miterlimit:10;" d="M364.066,428.768
				c-0.464,2.396-0.996,4.878-1.605,7.443"/>
			<path style="fill:none;stroke:#263238;stroke-linecap:round;stroke-linejoin:round;stroke-miterlimit:10;" d="M363.13,377.362
				c0,0,6.918,15.433,1.765,46.774"/>
			<path style="fill:none;stroke:#263238;stroke-linecap:round;stroke-linejoin:round;stroke-miterlimit:10;" d="M366.474,368
				c0,0,7.356,14.712,6.019,40.125"/>
		</g>
		<path style="fill:none;stroke:#263238;stroke-linecap:round;stroke-linejoin:round;stroke-miterlimit:10;" d="M22.664,396.695
			c-0.159,9.898,1.246,23.802,8.1,37.51"/>
		<path style="fill:none;stroke:#263238;stroke-linecap:round;stroke-linejoin:round;stroke-miterlimit:10;" d="M24.077,382.712
			c0,0-0.844,3.659-1.233,9.571"/>
		<path style="fill:none;stroke:#263238;stroke-linecap:round;stroke-linejoin:round;stroke-miterlimit:10;" d="M16.721,412.806
			c0,0,1.337,14.712,12.037,28.087"/>
	</g>
</g>
<g id="Character">
	<g>
		<g>
			<path style="fill:#92E3A9;stroke:#263238;stroke-linecap:round;stroke-linejoin:round;stroke-miterlimit:10;" d="M196.699,249.99
				c1.932,0.48,26.069,2.62,26.069,2.62l-0.679,17.471l64.63-0.086c-1.98-7.982-5.174-20.58-5.913-21.807
				c-1.089-1.809-17.512-10.355-17.512-10.355l-21.124-4.437c0,0-12.794-2.155-18.706-1.182c-5.912,0.973-25.097,2.93-27.75,4.14
				C193.063,237.565,194.768,249.51,196.699,249.99z"/>
			<path style="fill:#92E3A9;stroke:#263238;stroke-linecap:round;stroke-linejoin:round;stroke-miterlimit:10;" d="
				M294.285,269.985c-0.225-1.743-0.828-3.523-2.039-4.73c-2.805-2.798-7.056-5.323-7.056-5.323
				c-1.177-1.354-11.664-3.78-11.843-2.967c-0.108,0.49,2.607,7.52,4.786,13.041L294.285,269.985z"/>
			<polyline style="fill:none;stroke:#263238;stroke-linecap:round;stroke-linejoin:round;stroke-miterlimit:10;" points="
				222.273,242.836 222.769,252.61 219.257,243.926 			"/>
			<path style="fill:#92E3A9;stroke:#263238;stroke-linecap:round;stroke-linejoin:round;stroke-miterlimit:10;" d="
				M246.044,242.036c0,0-1.477,0.002-3.213,1.308c-1.736,1.306-5.989,4.874-5.989,4.874s2.417-11.994,3.457-14.081
				c1.04-2.087,4.252-4.003,4.687-4.09c0.434-0.088,12.86,0.417,13.991,1.111s2.609,1.821,3.654,3.645
				c1.045,1.823,1.917,3.734,1.917,3.734s-6.592,8.35-8.328,10.438c-1.735,2.088-2.082,2.523-2.082,2.523s-1.83-3.734-3.135-5.383
				c-1.306-1.649-4.001-3.036-4.001-3.036L246.044,242.036z"/>
			<g>
				<path style="fill:#FFFFFF;stroke:#263238;stroke-linecap:round;stroke-linejoin:round;stroke-miterlimit:10;" d="
					M251.325,199.357c0,0-5.228,0.314-7.07,2.983c-1.842,2.668-2.861,7.078-3.269,8.924c-0.408,1.846-1.74,2.258-2.249,4.924
					c-0.509,2.666-0.801,14.047-0.492,15.379c0.309,1.332,4.822,2.762,5.643,3.068c0.821,0.307,0.531,13.532,1.658,13.018
					c1.127-0.514,14.746-12.938,15.053-13.348c0.307-0.411,1.838-5.744,1.838-5.744s5.637-1.135,5.941-3.904
					c0.304-2.768-1.544-4.406-1.544-4.406s4.095-4.516,4.194-6.977c0.099-2.461-5.243-10.758-9.654-12.495
					C256.963,199.042,251.325,199.357,251.325,199.357z"/>
				<g>
					<path style="fill:#92E3A9;" d="M254.362,219.566c-0.32,1.053-3.673,0.969-7.49-0.19c-3.817-1.158-6.652-2.951-6.332-4.005
						c0.32-1.053,3.673-0.969,7.49,0.19C251.847,216.72,254.682,218.513,254.362,219.566z"/>
					<path style="opacity:0.64;fill:#FFFFFF;" d="M254.362,219.566c-0.32,1.053-3.673,0.969-7.49-0.19
						c-3.817-1.158-6.652-2.951-6.332-4.005c0.32-1.053,3.673-0.969,7.49,0.19C251.847,216.72,254.682,218.513,254.362,219.566z"/>
				</g>
				<path style="fill:#263238;stroke:#263238;stroke-linecap:round;stroke-linejoin:round;stroke-miterlimit:10;" d="
					M261.374,200.779c-4.411-1.737-10.049-1.422-10.049-1.422s2.362,2.663,4.617,2.967c2.256,0.305,5.843-0.213,7.588,1.22
					c1.745,1.433,3.288,5.532,1.854,6.354c-1.434,0.822-4.304,1.133-3.79,2.671c0.515,1.537,2.16,5.226,2.16,5.226
					s-2.561,1.849-1.944,2.668c0.616,0.819,1.642,1.433,1.95,1.33c0.307-0.103,1.74-2.155,3.074-1.542c0,0,4.095-4.516,4.194-6.977
					C271.127,210.813,265.784,202.516,261.374,200.779z"/>
				<path style="fill:none;stroke:#263238;stroke-linecap:round;stroke-linejoin:round;stroke-miterlimit:10;" d="M247.753,211.562
					l-0.714,2.359c0,0-3.994,3.081-3.891,3.799c0.104,0.717,1.438,2.048,2.463,2.15c1.025,0.101,2.152-0.823,2.152-0.823"/>
				<path style="fill:none;stroke:#263238;stroke-linecap:round;stroke-linejoin:round;stroke-miterlimit:10;" d="M251.061,209.261
					c0,0,0.279,1.784,1.816,1.167c1.537-0.617,4.51-0.621,5.026,2.146"/>
				<path style="fill:none;stroke:#263238;stroke-linecap:round;stroke-linejoin:round;stroke-miterlimit:10;" d="M246.726,210.23
					c0,0-0.926-2.357-3.181-2.354"/>
				<path style="fill:none;stroke:#263238;stroke-linecap:round;stroke-linejoin:round;stroke-miterlimit:10;" d="M241.706,213.313
					c0,0,1.946-1.643,3.589,0.303"/>
				<path style="fill:none;stroke:#263238;stroke-linecap:round;stroke-linejoin:round;stroke-miterlimit:10;" d="M250.689,215.164
					c0,0,2.275-0.865,3.385,1.533"/>
				<polygon style="fill:#263238;stroke:#263238;stroke-linecap:round;stroke-linejoin:round;stroke-miterlimit:10;" points="
					243.888,234.635 253.803,231.78 244.677,240.344 				"/>
			</g>
			<g>
				<path style="fill:#FFFFFF;stroke:#263238;stroke-linecap:round;stroke-linejoin:round;stroke-miterlimit:10;" d="
					M221.003,229.818l-3.205,7.564c0,0-8.254,0.011-13.035-1.025c-4.78-1.036-12.687-0.852-15.117,1.15
					c-2.43,2.002-2.074,8.605-0.855,10.688c1.219,2.084,1.222,4.169,10.691,2.94s22.843-6.46,24.492-7.679
					c1.649-1.219,5.381-4.525,6.334-6.699c0.953-2.174,4.849-12.258,4.849-12.258s-4.607-1.471-6.083-0.339
					c-1.476,1.132-3.036,3.48-3.471,3.741C225.172,228.161,221.783,228.079,221.003,229.818z"/>
				<path style="fill:#92E3A9;stroke:#263238;stroke-linecap:round;stroke-linejoin:round;stroke-miterlimit:10;" d="
					M199.483,251.134c5.584-0.725,12.524-2.841,17.619-4.706c-4.536-4.111-3.059-7.359-1.544-9.081
					c-2.789-0.071-7.577-0.294-10.794-0.992c-4.78-1.036-12.687-0.852-15.117,1.15c-2.43,2.002-2.074,8.605-0.855,10.688
					C190.011,250.278,190.014,252.363,199.483,251.134z"/>
				<path style="fill:none;stroke:#263238;stroke-linecap:round;stroke-linejoin:round;stroke-miterlimit:10;" d="M211.369,237.477
					c0,0-4.947,4.177,0.882,9.817"/>
				<path style="fill:none;stroke:#263238;stroke-linecap:round;stroke-linejoin:round;stroke-miterlimit:10;" d="M220.15,241.115
					c0,0,2.781-0.004,3.821-1.656c1.041-1.652,0.861-5.649,0.861-5.649"/>
				<path style="fill:#CFCFCF;stroke:#263238;stroke-linecap:round;stroke-linejoin:round;stroke-miterlimit:10;" d="
					M238.719,222.843c0,0,0.345-1.738,2.518-1.48c2.173,0.258,1.568,2.778,1.568,2.778L238.719,222.843z"/>
				<path style="fill:#CFCFCF;stroke:#263238;stroke-linecap:round;stroke-linejoin:round;stroke-miterlimit:10;" d="
					M233.854,223.458c0,0-6.065,12.52-5.542,13.736c0.523,1.216,8.694,3.985,11.039,3.374c2.345-0.611,7.456-12.696,7.019-14.085
					c-0.436-1.39-2.958-2.777-5.913-3.555C237.502,222.15,234.722,222.327,233.854,223.458z"/>
				<path style="fill:#CFCFCF;stroke:#263238;stroke-linecap:round;stroke-linejoin:round;stroke-miterlimit:10;" d="
					M240.227,239.696c-0.266,1.023-3.144,1.16-6.428,0.306c-3.284-0.854-5.731-2.376-5.465-3.399
					c0.266-1.023,3.144-1.16,6.428-0.306C238.047,237.152,240.493,238.673,240.227,239.696z"/>
				<path style="fill:#FFFFFF;stroke:#263238;stroke-linecap:round;stroke-linejoin:round;stroke-miterlimit:10;" d="
					M228.381,223.726c0,0,2.778-1.655,3.473-1.569c0.695,0.086,5.303,2.252,6.347,2.859c1.044,0.607,1.825,0.519,1.653,1.301
					s-1.476,0.523-3.041,0.352c-1.564-0.172-4.694-1.471-4.694-1.471l-1.738,0.089L228.381,223.726z"/>
				<path style="fill:#FFFFFF;stroke:#263238;stroke-linecap:round;stroke-linejoin:round;stroke-miterlimit:10;" d="
					M226.385,225.727c0,0,0.779-2.173,1.996-2.001c1.217,0.172,4.783,2.774,6,3.294c1.217,0.52,3.912,1.385,3.913,1.993
					c0.001,0.608-1.389,1.045-2.084,1.046c-0.695,0.001-6.52-2.337-6.52-2.337s-1.738,0.176-2.694-0.344
					C226.039,226.857,226.212,226.335,226.385,225.727z"/>
				<path style="fill:#FFFFFF;stroke:#263238;stroke-linecap:round;stroke-linejoin:round;stroke-miterlimit:10;" d="
					M224.128,227.294c0,0,1.996-2.001,3.039-1.655c1.043,0.346,5.046,4.772,6.263,5.553c1.217,0.78,1.045,1.476,0.089,1.824
					c-0.955,0.349-2.52-0.518-3.477-1.212c-0.957-0.694-4.261-2.688-4.261-2.688l-0.868,0.609L224.128,227.294z"/>
				<path style="fill:#FFFFFF;stroke:#263238;stroke-linecap:round;stroke-linejoin:round;stroke-miterlimit:10;" d="
					M220.746,231.99c0,0,0.777-3.65,1.385-3.999c0.608-0.348,1.041-0.957,1.997-0.698c0.956,0.259,2.178,4.255,2.874,5.123
					c0.696,0.868,1.741,2.17,1.394,2.779c-0.347,0.609-1.477,0.263-1.912-0.258c-0.435-0.521-3.568-3.992-3.568-3.992"/>
			</g>
			<polygon style="fill:#263238;stroke:#263238;stroke-linecap:round;stroke-linejoin:round;stroke-miterlimit:10;" points="
				258.022,270.033 242.987,263.961 242.525,266.289 246.994,270.048 			"/>
			<path style="fill:#FFFFFF;stroke:#263238;stroke-linecap:round;stroke-linejoin:round;stroke-miterlimit:10;" d="
				M273.793,252.536c0,0-3.346-1.803-4.523-2.976c-1.177-1.173-2.807-4.063-4.162-3.158c-1.354,0.906-1.351,3.346,0.188,5.332
				c1.539,1.986,4.524,3.97,4.976,4.241c0.452,0.271,13.477,8.477,13.477,8.477s2.799-2.263,1.44-4.521
				C283.832,257.674,273.793,252.536,273.793,252.536z"/>
			<path style="fill:#263238;" d="M242.367,270.054c4.074-7.192,11.772-12.059,20.629-12.071
				c8.857-0.012,16.568,4.835,20.661,12.016l7.404-0.01c-4.6-10.97-15.434-18.674-28.074-18.657
				c-12.64,0.017-23.453,7.749-28.024,18.732L242.367,270.054z"/>
			<path style="fill:#FFFFFF;stroke:#263238;stroke-linecap:round;stroke-linejoin:round;stroke-miterlimit:10;" d="
				M274.961,247.202c0,0-4.055,8.772-3.422,9.494c0.634,0.722,2.081,1.443,2.622,1.081c0.542-0.362,4.69-7.507,4.779-8.321
				C279.03,248.643,277.129,246.657,274.961,247.202z"/>
			<path style="fill:#FFFFFF;stroke:#263238;stroke-linecap:round;stroke-linejoin:round;stroke-miterlimit:10;" d="M278.94,249.457
				c0,0,2.983,0.809,3.798,1.531c0.814,0.722-1.259,4.882-2.702,6.872c-1.443,1.99-3.16,2.083-3.432,1.541
				c-0.272-0.542-0.814-0.812-0.094-2.53C277.231,255.153,278.399,250.361,278.94,249.457z"/>
			<path style="fill:#FFFFFF;stroke:#263238;stroke-linecap:round;stroke-linejoin:round;stroke-miterlimit:10;" d="
				M283.012,252.795c0,0,1.265-0.092,2.533,1.443s-2.071,5.877-3.786,7.054c-1.716,1.177-2.621-0.358-2.351-1.172
				C279.676,259.307,283.012,252.795,283.012,252.795z"/>
			<path style="fill:#FFFFFF;stroke:#263238;stroke-linecap:round;stroke-linejoin:round;stroke-miterlimit:10;" d="
				M285.728,256.316c0,0,2.351,0.991,1.992,2.618c-0.359,1.627-2.705,4.342-3.881,3.982c-1.175-0.36-0.996-1.716-0.365-2.801
				C284.105,259.03,285.728,256.316,285.728,256.316z"/>
			<g>
				<path style="fill:none;stroke:#263238;stroke-width:0.5;stroke-linecap:round;stroke-linejoin:round;stroke-miterlimit:10;" d="
					M275.433,225.931c-0.001-0.669-0.544-1.211-1.213-1.21s-1.211,0.544-1.21,1.213c0.001,0.669,0.544,1.211,1.213,1.21
					C274.892,227.144,275.434,226.601,275.433,225.931z"/>
				<g>
					
						<line style="fill:none;stroke:#263238;stroke-width:0.5;stroke-linecap:round;stroke-linejoin:round;stroke-miterlimit:10;" x1="274.211" y1="217.684" x2="274.212" y2="218.989"/>
					
						<line style="fill:none;stroke:#263238;stroke-width:0.5;stroke-linecap:round;stroke-linejoin:round;stroke-miterlimit:10;" x1="274.216" y1="221.39" x2="274.217" y2="222.695"/>
					
						<line style="fill:none;stroke:#263238;stroke-width:0.5;stroke-linecap:round;stroke-linejoin:round;stroke-miterlimit:10;" x1="271.709" y1="220.193" x2="273.013" y2="220.191"/>
					
						<line style="fill:none;stroke:#263238;stroke-width:0.5;stroke-linecap:round;stroke-linejoin:round;stroke-miterlimit:10;" x1="275.415" y1="220.188" x2="276.719" y2="220.186"/>
					
						<line style="fill:none;stroke:#263238;stroke-width:0.5;stroke-linecap:round;stroke-linejoin:round;stroke-miterlimit:10;" x1="272.445" y1="221.963" x2="273.366" y2="221.039"/>
					
						<line style="fill:none;stroke:#263238;stroke-width:0.5;stroke-linecap:round;stroke-linejoin:round;stroke-miterlimit:10;" x1="275.062" y1="219.339" x2="275.983" y2="218.415"/>
					
						<line style="fill:none;stroke:#263238;stroke-width:0.5;stroke-linecap:round;stroke-linejoin:round;stroke-miterlimit:10;" x1="272.44" y1="218.42" x2="273.364" y2="219.342"/>
					
						<line style="fill:none;stroke:#263238;stroke-width:0.5;stroke-linecap:round;stroke-linejoin:round;stroke-miterlimit:10;" x1="275.064" y1="221.037" x2="275.988" y2="221.959"/>
				</g>
			</g>
		</g>
		<path style="fill:#707070;stroke:#263238;stroke-linecap:round;stroke-linejoin:round;stroke-miterlimit:10;" d="M61.946,270.259
			c-0.938,1.373-1.639,2.192-1.639,2.192l250.868-0.335c-16.562-3.726-47.13-9.339-82.489-9.778
			c-62.287-0.774-97.527,7.829-97.527,7.829L61.946,270.259z"/>
	</g>
</g>
</svg>
